<svg xmlns="http://www.w3.org/2000/svg" viewBox="0 0 64 64">
  <defs>
    <linearGradient id="bg" x1="8" y1="5" x2="57" y2="61" gradientUnits="userSpaceOnUse">
      <stop stop-color="#26241F"/>
      <stop offset="1" stop-color="#0E0E0D"/>
    </linearGradient>
    <linearGradient id="accent" x1="14" y1="13" x2="49" y2="50" gradientUnits="userSpaceOnUse">
      <stop stop-color="#F8F6F2"/>
      <stop offset="1" stop-color="#D8CBB8"/>
    </linearGradient>
  </defs>
  <rect width="64" height="64" rx="17" fill="url(#bg)"/>
  <path d="M48 8.5h7.5V16" fill="none" stroke="#C5B8A5" stroke-width="1" opacity=".7"/>
  <path d="M16 55.5H8.5V48" fill="none" stroke="#C5B8A5" stroke-width="1" opacity=".7"/>
  <path d="M33.2 18.2c-2.15-2.8-5.4-4.45-9.1-4.45-7.4 0-12.85 6.7-12.85 18.25S16.7 50.25 24.1 50.25c3.9 0 7.25-1.8 9.35-4.85" fill="none" stroke="url(#accent)" stroke-width="3.25" stroke-linecap="round"/>
  <path d="M34.75 50V14h8.1c6.65 0 10.4 3.65 10.4 9.45 0 6.15-4.05 9.8-10.8 9.8h-7.7m0-16.5h7.35c4.75 0 7.35 2.4 7.35 6.8 0 4.35-2.65 6.75-7.35 6.75h-7.35" fill="none" stroke="url(#accent)" stroke-width="2.65" stroke-linecap="round" stroke-linejoin="round"/>
  <circle cx="33.8" cy="32" r="1.45" fill="#C5B8A5"/>
</svg>
